<?xml version="1.0" ?><svg clip-rule="evenodd" fill-rule="evenodd" image-rendering="optimizeQuality" shape-rendering="geometricPrecision" text-rendering="geometricPrecision" viewBox="0 0 500 500" xmlns="http://www.w3.org/2000/svg"><defs><linearGradient gradientUnits="userSpaceOnUse" id="a" x1="306.749" x2="306.749" y1="79.201" y2="390.801"><stop offset="0" stop-color="#FCFCFD"/><stop offset="1" stop-color="#fff"/></linearGradient><linearGradient gradientUnits="userSpaceOnUse" id="b" x1="319.001" x2="29.391" y1="284.729" y2="284.729"><stop offset="0" stop-color="#008BFF"/><stop offset="1" stop-color="#0af"/></linearGradient></defs><g stroke="#434242" stroke-linejoin="round" stroke-width="10"><path d="M461 297v-234c0-18-15-33-33-33h-243c-18 0-33 15-33 33v234c0 18 15 33 33 33h22c12 0 23 0 34 11l65 99 67-99c11-11 22-11 33-11h22c18 0 33-15 33-33z" fill="url(#a)"/><path d="M319 336v-206c0-17-14-31-31-31h-228c-17 0-31 14-31 31v206c0 17 14 31 31 31h21c11 0 21 0 31 10l62 93 63-93c10-10 20-10 30-10h21c17 0 31-14 31-31z" fill="url(#b)"/></g></svg>